<mxfile host="app.diagrams.net" modified="2022-12-03T21:24:38.854Z" agent="5.0 (Windows NT 10.0; Win64; x64) AppleWebKit/537.36 (KHTML, like Gecko) Chrome/108.0.0.0 Safari/537.36" version="20.6.0" etag="tuUhEpoajdycwvAKbInB" type="github" pages="2">
  <diagram id="sduObbd9qyuQ6HZW_vYR" name="Question 3">
    <mxGraphModel dx="1167" dy="1336" grid="1" gridSize="10" guides="1" tooltips="1" connect="1" arrows="1" fold="1" page="1" pageScale="1" pageWidth="827" pageHeight="1169" math="0" shadow="0">
      <root>
        <mxCell id="0" />
        <mxCell id="1" parent="0" />
        <mxCell id="06yi1R9x0KxXkYPc3tcx-241" style="edgeStyle=orthogonalEdgeStyle;rounded=0;orthogonalLoop=1;jettySize=auto;html=1;entryX=0.471;entryY=0.026;entryDx=0;entryDy=0;entryPerimeter=0;fontSize=14;" edge="1" parent="1" source="06yi1R9x0KxXkYPc3tcx-13" target="06yi1R9x0KxXkYPc3tcx-110">
          <mxGeometry relative="1" as="geometry">
            <Array as="points">
              <mxPoint x="349" y="640" />
            </Array>
          </mxGeometry>
        </mxCell>
        <mxCell id="06yi1R9x0KxXkYPc3tcx-242" style="edgeStyle=orthogonalEdgeStyle;rounded=0;orthogonalLoop=1;jettySize=auto;html=1;entryX=0.416;entryY=-0.015;entryDx=0;entryDy=0;entryPerimeter=0;fontSize=14;" edge="1" parent="1" source="06yi1R9x0KxXkYPc3tcx-13" target="06yi1R9x0KxXkYPc3tcx-76">
          <mxGeometry relative="1" as="geometry" />
        </mxCell>
        <mxCell id="06yi1R9x0KxXkYPc3tcx-259" style="edgeStyle=orthogonalEdgeStyle;rounded=0;orthogonalLoop=1;jettySize=auto;html=1;entryX=0.504;entryY=-0.015;entryDx=0;entryDy=0;entryPerimeter=0;fontSize=14;exitX=0.577;exitY=0.985;exitDx=0;exitDy=0;exitPerimeter=0;" edge="1" parent="1" source="06yi1R9x0KxXkYPc3tcx-14" target="06yi1R9x0KxXkYPc3tcx-219">
          <mxGeometry relative="1" as="geometry" />
        </mxCell>
        <mxCell id="06yi1R9x0KxXkYPc3tcx-260" style="edgeStyle=orthogonalEdgeStyle;rounded=0;orthogonalLoop=1;jettySize=auto;html=1;entryX=0.527;entryY=0.026;entryDx=0;entryDy=0;entryPerimeter=0;fontSize=14;exitX=0.655;exitY=1.007;exitDx=0;exitDy=0;exitPerimeter=0;" edge="1" parent="1" source="06yi1R9x0KxXkYPc3tcx-14" target="06yi1R9x0KxXkYPc3tcx-205">
          <mxGeometry relative="1" as="geometry">
            <Array as="points">
              <mxPoint x="531" y="640" />
              <mxPoint x="531" y="640" />
            </Array>
          </mxGeometry>
        </mxCell>
        <mxCell id="06yi1R9x0KxXkYPc3tcx-261" style="edgeStyle=orthogonalEdgeStyle;rounded=0;orthogonalLoop=1;jettySize=auto;html=1;entryX=0.493;entryY=0.013;entryDx=0;entryDy=0;entryPerimeter=0;fontSize=14;exitX=0.73;exitY=1.023;exitDx=0;exitDy=0;exitPerimeter=0;" edge="1" parent="1" source="06yi1R9x0KxXkYPc3tcx-14" target="06yi1R9x0KxXkYPc3tcx-233">
          <mxGeometry relative="1" as="geometry" />
        </mxCell>
        <mxCell id="06yi1R9x0KxXkYPc3tcx-262" style="edgeStyle=orthogonalEdgeStyle;rounded=0;orthogonalLoop=1;jettySize=auto;html=1;entryX=0.5;entryY=0;entryDx=0;entryDy=0;fontSize=14;" edge="1" parent="1" source="06yi1R9x0KxXkYPc3tcx-13" target="06yi1R9x0KxXkYPc3tcx-225">
          <mxGeometry relative="1" as="geometry">
            <Array as="points">
              <mxPoint x="540" y="600" />
              <mxPoint x="540" y="600" />
            </Array>
          </mxGeometry>
        </mxCell>
        <mxCell id="06yi1R9x0KxXkYPc3tcx-263" style="edgeStyle=orthogonalEdgeStyle;rounded=0;orthogonalLoop=1;jettySize=auto;html=1;entryX=0.5;entryY=0.005;entryDx=0;entryDy=0;entryPerimeter=0;fontSize=14;" edge="1" parent="1" source="06yi1R9x0KxXkYPc3tcx-13" target="06yi1R9x0KxXkYPc3tcx-83">
          <mxGeometry relative="1" as="geometry">
            <Array as="points">
              <mxPoint x="560" y="600" />
              <mxPoint x="560" y="600" />
            </Array>
          </mxGeometry>
        </mxCell>
        <mxCell id="06yi1R9x0KxXkYPc3tcx-264" style="edgeStyle=orthogonalEdgeStyle;rounded=0;orthogonalLoop=1;jettySize=auto;html=1;entryX=0.496;entryY=-0.001;entryDx=0;entryDy=0;entryPerimeter=0;fontSize=14;" edge="1" parent="1" source="06yi1R9x0KxXkYPc3tcx-13" target="06yi1R9x0KxXkYPc3tcx-191">
          <mxGeometry relative="1" as="geometry">
            <Array as="points">
              <mxPoint x="590" y="600" />
              <mxPoint x="590" y="600" />
            </Array>
          </mxGeometry>
        </mxCell>
        <mxCell id="06yi1R9x0KxXkYPc3tcx-13" value="" style="shape=table;startSize=0;container=1;collapsible=0;childLayout=tableLayout;" vertex="1" parent="1">
          <mxGeometry x="20" y="560" width="780" height="40" as="geometry" />
        </mxCell>
        <mxCell id="06yi1R9x0KxXkYPc3tcx-14" value="" style="shape=tableRow;horizontal=0;startSize=0;swimlaneHead=0;swimlaneBody=0;top=0;left=0;bottom=0;right=0;collapsible=0;dropTarget=0;fillColor=none;points=[[0,0.5],[1,0.5]];portConstraint=eastwest;" vertex="1" parent="06yi1R9x0KxXkYPc3tcx-13">
          <mxGeometry width="780" height="40" as="geometry" />
        </mxCell>
        <mxCell id="06yi1R9x0KxXkYPc3tcx-15" value="" style="shape=partialRectangle;html=1;whiteSpace=wrap;connectable=0;overflow=hidden;fillColor=none;top=0;left=0;bottom=0;right=0;pointerEvents=1;" vertex="1" parent="06yi1R9x0KxXkYPc3tcx-14">
          <mxGeometry width="60" height="40" as="geometry">
            <mxRectangle width="60" height="40" as="alternateBounds" />
          </mxGeometry>
        </mxCell>
        <mxCell id="06yi1R9x0KxXkYPc3tcx-16" value="" style="shape=partialRectangle;html=1;whiteSpace=wrap;connectable=0;overflow=hidden;fillColor=none;top=0;left=0;bottom=0;right=0;pointerEvents=1;" vertex="1" parent="06yi1R9x0KxXkYPc3tcx-14">
          <mxGeometry x="60" width="60" height="40" as="geometry">
            <mxRectangle width="60" height="40" as="alternateBounds" />
          </mxGeometry>
        </mxCell>
        <mxCell id="06yi1R9x0KxXkYPc3tcx-17" value="" style="shape=partialRectangle;html=1;whiteSpace=wrap;connectable=0;overflow=hidden;fillColor=none;top=0;left=0;bottom=0;right=0;pointerEvents=1;" vertex="1" parent="06yi1R9x0KxXkYPc3tcx-14">
          <mxGeometry x="120" width="60" height="40" as="geometry">
            <mxRectangle width="60" height="40" as="alternateBounds" />
          </mxGeometry>
        </mxCell>
        <mxCell id="06yi1R9x0KxXkYPc3tcx-18" value="" style="shape=partialRectangle;html=1;whiteSpace=wrap;connectable=0;overflow=hidden;fillColor=none;top=0;left=0;bottom=0;right=0;pointerEvents=1;" vertex="1" parent="06yi1R9x0KxXkYPc3tcx-14">
          <mxGeometry x="180" width="60" height="40" as="geometry">
            <mxRectangle width="60" height="40" as="alternateBounds" />
          </mxGeometry>
        </mxCell>
        <mxCell id="06yi1R9x0KxXkYPc3tcx-19" value="" style="shape=partialRectangle;html=1;whiteSpace=wrap;connectable=0;overflow=hidden;fillColor=none;top=0;left=0;bottom=0;right=0;pointerEvents=1;" vertex="1" parent="06yi1R9x0KxXkYPc3tcx-14">
          <mxGeometry x="240" width="60" height="40" as="geometry">
            <mxRectangle width="60" height="40" as="alternateBounds" />
          </mxGeometry>
        </mxCell>
        <mxCell id="06yi1R9x0KxXkYPc3tcx-20" value="" style="shape=partialRectangle;html=1;whiteSpace=wrap;connectable=0;overflow=hidden;fillColor=none;top=0;left=0;bottom=0;right=0;pointerEvents=1;verticalAlign=middle;" vertex="1" parent="06yi1R9x0KxXkYPc3tcx-14">
          <mxGeometry x="300" width="60" height="40" as="geometry">
            <mxRectangle width="60" height="40" as="alternateBounds" />
          </mxGeometry>
        </mxCell>
        <mxCell id="06yi1R9x0KxXkYPc3tcx-21" value="" style="shape=partialRectangle;html=1;whiteSpace=wrap;connectable=0;overflow=hidden;fillColor=none;top=0;left=0;bottom=0;right=0;pointerEvents=1;" vertex="1" parent="06yi1R9x0KxXkYPc3tcx-14">
          <mxGeometry x="360" width="60" height="40" as="geometry">
            <mxRectangle width="60" height="40" as="alternateBounds" />
          </mxGeometry>
        </mxCell>
        <mxCell id="06yi1R9x0KxXkYPc3tcx-22" value="" style="shape=partialRectangle;html=1;whiteSpace=wrap;connectable=0;overflow=hidden;fillColor=none;top=0;left=0;bottom=0;right=0;pointerEvents=1;" vertex="1" parent="06yi1R9x0KxXkYPc3tcx-14">
          <mxGeometry x="420" width="60" height="40" as="geometry">
            <mxRectangle width="60" height="40" as="alternateBounds" />
          </mxGeometry>
        </mxCell>
        <mxCell id="06yi1R9x0KxXkYPc3tcx-23" value="" style="shape=partialRectangle;html=1;whiteSpace=wrap;connectable=0;overflow=hidden;fillColor=none;top=0;left=0;bottom=0;right=0;pointerEvents=1;" vertex="1" parent="06yi1R9x0KxXkYPc3tcx-14">
          <mxGeometry x="480" width="60" height="40" as="geometry">
            <mxRectangle width="60" height="40" as="alternateBounds" />
          </mxGeometry>
        </mxCell>
        <mxCell id="06yi1R9x0KxXkYPc3tcx-24" value="" style="shape=partialRectangle;html=1;whiteSpace=wrap;connectable=0;overflow=hidden;fillColor=none;top=0;left=0;bottom=0;right=0;pointerEvents=1;" vertex="1" parent="06yi1R9x0KxXkYPc3tcx-14">
          <mxGeometry x="540" width="60" height="40" as="geometry">
            <mxRectangle width="60" height="40" as="alternateBounds" />
          </mxGeometry>
        </mxCell>
        <mxCell id="06yi1R9x0KxXkYPc3tcx-25" value="" style="shape=partialRectangle;html=1;whiteSpace=wrap;connectable=0;overflow=hidden;fillColor=none;top=0;left=0;bottom=0;right=0;pointerEvents=1;" vertex="1" parent="06yi1R9x0KxXkYPc3tcx-14">
          <mxGeometry x="600" width="60" height="40" as="geometry">
            <mxRectangle width="60" height="40" as="alternateBounds" />
          </mxGeometry>
        </mxCell>
        <mxCell id="06yi1R9x0KxXkYPc3tcx-26" value="" style="shape=partialRectangle;html=1;whiteSpace=wrap;connectable=0;overflow=hidden;fillColor=none;top=0;left=0;bottom=0;right=0;pointerEvents=1;" vertex="1" parent="06yi1R9x0KxXkYPc3tcx-14">
          <mxGeometry x="660" width="60" height="40" as="geometry">
            <mxRectangle width="60" height="40" as="alternateBounds" />
          </mxGeometry>
        </mxCell>
        <mxCell id="06yi1R9x0KxXkYPc3tcx-27" value="" style="shape=partialRectangle;html=1;whiteSpace=wrap;connectable=0;overflow=hidden;fillColor=none;top=0;left=0;bottom=0;right=0;pointerEvents=1;" vertex="1" parent="06yi1R9x0KxXkYPc3tcx-14">
          <mxGeometry x="720" width="60" height="40" as="geometry">
            <mxRectangle width="60" height="40" as="alternateBounds" />
          </mxGeometry>
        </mxCell>
        <mxCell id="06yi1R9x0KxXkYPc3tcx-29" value="0" style="text;html=1;strokeColor=none;fillColor=none;align=center;verticalAlign=middle;whiteSpace=wrap;rounded=0;" vertex="1" parent="1">
          <mxGeometry x="20" y="530" width="60" height="30" as="geometry" />
        </mxCell>
        <mxCell id="06yi1R9x0KxXkYPc3tcx-30" value="2" style="text;html=1;strokeColor=none;fillColor=none;align=center;verticalAlign=middle;whiteSpace=wrap;rounded=0;" vertex="1" parent="1">
          <mxGeometry x="140" y="530" width="60" height="30" as="geometry" />
        </mxCell>
        <mxCell id="06yi1R9x0KxXkYPc3tcx-31" value="3" style="text;html=1;strokeColor=none;fillColor=none;align=center;verticalAlign=middle;whiteSpace=wrap;rounded=0;" vertex="1" parent="1">
          <mxGeometry x="200" y="530" width="60" height="30" as="geometry" />
        </mxCell>
        <mxCell id="06yi1R9x0KxXkYPc3tcx-32" value="1" style="text;html=1;strokeColor=none;fillColor=none;align=center;verticalAlign=middle;whiteSpace=wrap;rounded=0;" vertex="1" parent="1">
          <mxGeometry x="80" y="530" width="60" height="30" as="geometry" />
        </mxCell>
        <mxCell id="06yi1R9x0KxXkYPc3tcx-33" value="4" style="text;html=1;strokeColor=none;fillColor=none;align=center;verticalAlign=middle;whiteSpace=wrap;rounded=0;" vertex="1" parent="1">
          <mxGeometry x="260" y="530" width="60" height="30" as="geometry" />
        </mxCell>
        <mxCell id="06yi1R9x0KxXkYPc3tcx-34" value="5" style="text;html=1;strokeColor=none;fillColor=none;align=center;verticalAlign=middle;whiteSpace=wrap;rounded=0;" vertex="1" parent="1">
          <mxGeometry x="320" y="530" width="60" height="30" as="geometry" />
        </mxCell>
        <mxCell id="06yi1R9x0KxXkYPc3tcx-35" value="6" style="text;html=1;strokeColor=none;fillColor=none;align=center;verticalAlign=middle;whiteSpace=wrap;rounded=0;" vertex="1" parent="1">
          <mxGeometry x="380" y="530" width="60" height="30" as="geometry" />
        </mxCell>
        <mxCell id="06yi1R9x0KxXkYPc3tcx-36" value="7" style="text;html=1;strokeColor=none;fillColor=none;align=center;verticalAlign=middle;whiteSpace=wrap;rounded=0;" vertex="1" parent="1">
          <mxGeometry x="440" y="530" width="60" height="30" as="geometry" />
        </mxCell>
        <mxCell id="06yi1R9x0KxXkYPc3tcx-37" value="8" style="text;html=1;strokeColor=none;fillColor=none;align=center;verticalAlign=middle;whiteSpace=wrap;rounded=0;" vertex="1" parent="1">
          <mxGeometry x="500" y="530" width="60" height="30" as="geometry" />
        </mxCell>
        <mxCell id="06yi1R9x0KxXkYPc3tcx-38" value="9" style="text;html=1;strokeColor=none;fillColor=none;align=center;verticalAlign=middle;whiteSpace=wrap;rounded=0;" vertex="1" parent="1">
          <mxGeometry x="560" y="530" width="60" height="30" as="geometry" />
        </mxCell>
        <mxCell id="06yi1R9x0KxXkYPc3tcx-39" value="10" style="text;html=1;strokeColor=none;fillColor=none;align=center;verticalAlign=middle;whiteSpace=wrap;rounded=0;" vertex="1" parent="1">
          <mxGeometry x="620" y="530" width="60" height="30" as="geometry" />
        </mxCell>
        <mxCell id="06yi1R9x0KxXkYPc3tcx-40" value="11" style="text;html=1;strokeColor=none;fillColor=none;align=center;verticalAlign=middle;whiteSpace=wrap;rounded=0;" vertex="1" parent="1">
          <mxGeometry x="680" y="530" width="60" height="30" as="geometry" />
        </mxCell>
        <mxCell id="06yi1R9x0KxXkYPc3tcx-41" value="12" style="text;html=1;strokeColor=none;fillColor=none;align=center;verticalAlign=middle;whiteSpace=wrap;rounded=0;" vertex="1" parent="1">
          <mxGeometry x="740" y="530" width="60" height="30" as="geometry" />
        </mxCell>
        <mxCell id="06yi1R9x0KxXkYPc3tcx-58" style="edgeStyle=orthogonalEdgeStyle;rounded=0;orthogonalLoop=1;jettySize=auto;html=1;exitX=0.5;exitY=1;exitDx=0;exitDy=0;" edge="1" parent="1" source="06yi1R9x0KxXkYPc3tcx-41" target="06yi1R9x0KxXkYPc3tcx-41">
          <mxGeometry relative="1" as="geometry" />
        </mxCell>
        <mxCell id="06yi1R9x0KxXkYPc3tcx-75" value="" style="shape=table;startSize=0;container=1;collapsible=0;childLayout=tableLayout;" vertex="1" parent="1">
          <mxGeometry x="390" y="680" width="50" height="120" as="geometry" />
        </mxCell>
        <mxCell id="06yi1R9x0KxXkYPc3tcx-76" value="" style="shape=tableRow;horizontal=0;startSize=0;swimlaneHead=0;swimlaneBody=0;top=0;left=0;bottom=0;right=0;collapsible=0;dropTarget=0;fillColor=none;points=[[0,0.5],[1,0.5]];portConstraint=eastwest;" vertex="1" parent="06yi1R9x0KxXkYPc3tcx-75">
          <mxGeometry width="50" height="40" as="geometry" />
        </mxCell>
        <mxCell id="06yi1R9x0KxXkYPc3tcx-77" value="&lt;font style=&quot;font-size: 14px;&quot;&gt;32&lt;/font&gt;" style="shape=partialRectangle;html=1;whiteSpace=wrap;connectable=0;overflow=hidden;fillColor=none;top=0;left=0;bottom=0;right=0;pointerEvents=1;" vertex="1" parent="06yi1R9x0KxXkYPc3tcx-76">
          <mxGeometry width="50" height="40" as="geometry">
            <mxRectangle width="50" height="40" as="alternateBounds" />
          </mxGeometry>
        </mxCell>
        <mxCell id="06yi1R9x0KxXkYPc3tcx-78" value="" style="shape=tableRow;horizontal=0;startSize=0;swimlaneHead=0;swimlaneBody=0;top=0;left=0;bottom=0;right=0;collapsible=0;dropTarget=0;fillColor=none;points=[[0,0.5],[1,0.5]];portConstraint=eastwest;" vertex="1" parent="06yi1R9x0KxXkYPc3tcx-75">
          <mxGeometry y="40" width="50" height="40" as="geometry" />
        </mxCell>
        <mxCell id="06yi1R9x0KxXkYPc3tcx-79" value="162" style="shape=partialRectangle;html=1;whiteSpace=wrap;connectable=0;overflow=hidden;fillColor=none;top=0;left=0;bottom=0;right=0;pointerEvents=1;" vertex="1" parent="06yi1R9x0KxXkYPc3tcx-78">
          <mxGeometry width="50" height="40" as="geometry">
            <mxRectangle width="50" height="40" as="alternateBounds" />
          </mxGeometry>
        </mxCell>
        <mxCell id="06yi1R9x0KxXkYPc3tcx-80" value="" style="shape=tableRow;horizontal=0;startSize=0;swimlaneHead=0;swimlaneBody=0;top=0;left=0;bottom=0;right=0;collapsible=0;dropTarget=0;fillColor=none;points=[[0,0.5],[1,0.5]];portConstraint=eastwest;" vertex="1" parent="06yi1R9x0KxXkYPc3tcx-75">
          <mxGeometry y="80" width="50" height="40" as="geometry" />
        </mxCell>
        <mxCell id="06yi1R9x0KxXkYPc3tcx-81" value="" style="shape=partialRectangle;html=1;whiteSpace=wrap;connectable=0;overflow=hidden;fillColor=none;top=0;left=0;bottom=0;right=0;pointerEvents=1;" vertex="1" parent="06yi1R9x0KxXkYPc3tcx-80">
          <mxGeometry width="50" height="40" as="geometry">
            <mxRectangle width="50" height="40" as="alternateBounds" />
          </mxGeometry>
        </mxCell>
        <mxCell id="06yi1R9x0KxXkYPc3tcx-82" value="" style="shape=table;startSize=0;container=1;collapsible=0;childLayout=tableLayout;" vertex="1" parent="1">
          <mxGeometry x="685" y="680" width="50" height="120" as="geometry" />
        </mxCell>
        <mxCell id="06yi1R9x0KxXkYPc3tcx-83" value="" style="shape=tableRow;horizontal=0;startSize=0;swimlaneHead=0;swimlaneBody=0;top=0;left=0;bottom=0;right=0;collapsible=0;dropTarget=0;fillColor=none;points=[[0,0.5],[1,0.5]];portConstraint=eastwest;" vertex="1" parent="06yi1R9x0KxXkYPc3tcx-82">
          <mxGeometry width="50" height="40" as="geometry" />
        </mxCell>
        <mxCell id="06yi1R9x0KxXkYPc3tcx-84" value="&lt;font style=&quot;font-size: 14px;&quot;&gt;180&lt;/font&gt;" style="shape=partialRectangle;html=1;whiteSpace=wrap;connectable=0;overflow=hidden;fillColor=none;top=0;left=0;bottom=0;right=0;pointerEvents=1;" vertex="1" parent="06yi1R9x0KxXkYPc3tcx-83">
          <mxGeometry width="50" height="40" as="geometry">
            <mxRectangle width="50" height="40" as="alternateBounds" />
          </mxGeometry>
        </mxCell>
        <mxCell id="06yi1R9x0KxXkYPc3tcx-85" value="" style="shape=tableRow;horizontal=0;startSize=0;swimlaneHead=0;swimlaneBody=0;top=0;left=0;bottom=0;right=0;collapsible=0;dropTarget=0;fillColor=none;points=[[0,0.5],[1,0.5]];portConstraint=eastwest;" vertex="1" parent="06yi1R9x0KxXkYPc3tcx-82">
          <mxGeometry y="40" width="50" height="40" as="geometry" />
        </mxCell>
        <mxCell id="06yi1R9x0KxXkYPc3tcx-86" value="37" style="shape=partialRectangle;html=1;whiteSpace=wrap;connectable=0;overflow=hidden;fillColor=none;top=0;left=0;bottom=0;right=0;pointerEvents=1;" vertex="1" parent="06yi1R9x0KxXkYPc3tcx-85">
          <mxGeometry width="50" height="40" as="geometry">
            <mxRectangle width="50" height="40" as="alternateBounds" />
          </mxGeometry>
        </mxCell>
        <mxCell id="06yi1R9x0KxXkYPc3tcx-87" value="" style="shape=tableRow;horizontal=0;startSize=0;swimlaneHead=0;swimlaneBody=0;top=0;left=0;bottom=0;right=0;collapsible=0;dropTarget=0;fillColor=none;points=[[0,0.5],[1,0.5]];portConstraint=eastwest;" vertex="1" parent="06yi1R9x0KxXkYPc3tcx-82">
          <mxGeometry y="80" width="50" height="40" as="geometry" />
        </mxCell>
        <mxCell id="06yi1R9x0KxXkYPc3tcx-88" value="" style="shape=partialRectangle;html=1;whiteSpace=wrap;connectable=0;overflow=hidden;fillColor=none;top=0;left=0;bottom=0;right=0;pointerEvents=1;" vertex="1" parent="06yi1R9x0KxXkYPc3tcx-87">
          <mxGeometry width="50" height="40" as="geometry">
            <mxRectangle width="50" height="40" as="alternateBounds" />
          </mxGeometry>
        </mxCell>
        <mxCell id="06yi1R9x0KxXkYPc3tcx-109" value="" style="shape=table;startSize=0;container=1;collapsible=0;childLayout=tableLayout;" vertex="1" parent="1">
          <mxGeometry x="325" y="680" width="50" height="120" as="geometry" />
        </mxCell>
        <mxCell id="06yi1R9x0KxXkYPc3tcx-110" value="" style="shape=tableRow;horizontal=0;startSize=0;swimlaneHead=0;swimlaneBody=0;top=0;left=0;bottom=0;right=0;collapsible=0;dropTarget=0;fillColor=none;points=[[0,0.5],[1,0.5]];portConstraint=eastwest;" vertex="1" parent="06yi1R9x0KxXkYPc3tcx-109">
          <mxGeometry width="50" height="40" as="geometry" />
        </mxCell>
        <mxCell id="06yi1R9x0KxXkYPc3tcx-111" value="&lt;font style=&quot;font-size: 14px;&quot;&gt;265&lt;/font&gt;" style="shape=partialRectangle;html=1;whiteSpace=wrap;connectable=0;overflow=hidden;fillColor=none;top=0;left=0;bottom=0;right=0;pointerEvents=1;" vertex="1" parent="06yi1R9x0KxXkYPc3tcx-110">
          <mxGeometry width="50" height="40" as="geometry">
            <mxRectangle width="50" height="40" as="alternateBounds" />
          </mxGeometry>
        </mxCell>
        <mxCell id="06yi1R9x0KxXkYPc3tcx-112" value="" style="shape=tableRow;horizontal=0;startSize=0;swimlaneHead=0;swimlaneBody=0;top=0;left=0;bottom=0;right=0;collapsible=0;dropTarget=0;fillColor=none;points=[[0,0.5],[1,0.5]];portConstraint=eastwest;" vertex="1" parent="06yi1R9x0KxXkYPc3tcx-109">
          <mxGeometry y="40" width="50" height="40" as="geometry" />
        </mxCell>
        <mxCell id="06yi1R9x0KxXkYPc3tcx-113" value="" style="shape=partialRectangle;html=1;whiteSpace=wrap;connectable=0;overflow=hidden;fillColor=none;top=0;left=0;bottom=0;right=0;pointerEvents=1;" vertex="1" parent="06yi1R9x0KxXkYPc3tcx-112">
          <mxGeometry width="50" height="40" as="geometry">
            <mxRectangle width="50" height="40" as="alternateBounds" />
          </mxGeometry>
        </mxCell>
        <mxCell id="06yi1R9x0KxXkYPc3tcx-114" value="" style="shape=tableRow;horizontal=0;startSize=0;swimlaneHead=0;swimlaneBody=0;top=0;left=0;bottom=0;right=0;collapsible=0;dropTarget=0;fillColor=none;points=[[0,0.5],[1,0.5]];portConstraint=eastwest;" vertex="1" parent="06yi1R9x0KxXkYPc3tcx-109">
          <mxGeometry y="80" width="50" height="40" as="geometry" />
        </mxCell>
        <mxCell id="06yi1R9x0KxXkYPc3tcx-115" value="" style="shape=partialRectangle;html=1;whiteSpace=wrap;connectable=0;overflow=hidden;fillColor=none;top=0;left=0;bottom=0;right=0;pointerEvents=1;" vertex="1" parent="06yi1R9x0KxXkYPc3tcx-114">
          <mxGeometry width="50" height="40" as="geometry">
            <mxRectangle width="50" height="40" as="alternateBounds" />
          </mxGeometry>
        </mxCell>
        <mxCell id="06yi1R9x0KxXkYPc3tcx-149" value="" style="shape=table;startSize=0;container=1;collapsible=0;childLayout=tableLayout;" vertex="1" parent="1">
          <mxGeometry x="25" y="680" width="50" height="120" as="geometry" />
        </mxCell>
        <mxCell id="06yi1R9x0KxXkYPc3tcx-150" value="" style="shape=tableRow;horizontal=0;startSize=0;swimlaneHead=0;swimlaneBody=0;top=0;left=0;bottom=0;right=0;collapsible=0;dropTarget=0;fillColor=none;points=[[0,0.5],[1,0.5]];portConstraint=eastwest;" vertex="1" parent="06yi1R9x0KxXkYPc3tcx-149">
          <mxGeometry width="50" height="40" as="geometry" />
        </mxCell>
        <mxCell id="06yi1R9x0KxXkYPc3tcx-151" value="&lt;font style=&quot;font-size: 14px;&quot;&gt;195&lt;/font&gt;" style="shape=partialRectangle;html=1;whiteSpace=wrap;connectable=0;overflow=hidden;fillColor=none;top=0;left=0;bottom=0;right=0;pointerEvents=1;" vertex="1" parent="06yi1R9x0KxXkYPc3tcx-150">
          <mxGeometry width="50" height="40" as="geometry">
            <mxRectangle width="50" height="40" as="alternateBounds" />
          </mxGeometry>
        </mxCell>
        <mxCell id="06yi1R9x0KxXkYPc3tcx-152" value="" style="shape=tableRow;horizontal=0;startSize=0;swimlaneHead=0;swimlaneBody=0;top=0;left=0;bottom=0;right=0;collapsible=0;dropTarget=0;fillColor=none;points=[[0,0.5],[1,0.5]];portConstraint=eastwest;" vertex="1" parent="06yi1R9x0KxXkYPc3tcx-149">
          <mxGeometry y="40" width="50" height="40" as="geometry" />
        </mxCell>
        <mxCell id="06yi1R9x0KxXkYPc3tcx-153" value="91" style="shape=partialRectangle;html=1;whiteSpace=wrap;connectable=0;overflow=hidden;fillColor=none;top=0;left=0;bottom=0;right=0;pointerEvents=1;" vertex="1" parent="06yi1R9x0KxXkYPc3tcx-152">
          <mxGeometry width="50" height="40" as="geometry">
            <mxRectangle width="50" height="40" as="alternateBounds" />
          </mxGeometry>
        </mxCell>
        <mxCell id="06yi1R9x0KxXkYPc3tcx-154" value="" style="shape=tableRow;horizontal=0;startSize=0;swimlaneHead=0;swimlaneBody=0;top=0;left=0;bottom=0;right=0;collapsible=0;dropTarget=0;fillColor=none;points=[[0,0.5],[1,0.5]];portConstraint=eastwest;" vertex="1" parent="06yi1R9x0KxXkYPc3tcx-149">
          <mxGeometry y="80" width="50" height="40" as="geometry" />
        </mxCell>
        <mxCell id="06yi1R9x0KxXkYPc3tcx-155" value="" style="shape=partialRectangle;html=1;whiteSpace=wrap;connectable=0;overflow=hidden;fillColor=none;top=0;left=0;bottom=0;right=0;pointerEvents=1;" vertex="1" parent="06yi1R9x0KxXkYPc3tcx-154">
          <mxGeometry width="50" height="40" as="geometry">
            <mxRectangle width="50" height="40" as="alternateBounds" />
          </mxGeometry>
        </mxCell>
        <mxCell id="06yi1R9x0KxXkYPc3tcx-156" style="edgeStyle=orthogonalEdgeStyle;rounded=0;orthogonalLoop=1;jettySize=auto;html=1;fontSize=14;" edge="1" parent="1">
          <mxGeometry relative="1" as="geometry">
            <mxPoint x="50" y="600" as="sourcePoint" />
            <mxPoint x="50" y="680" as="targetPoint" />
          </mxGeometry>
        </mxCell>
        <mxCell id="06yi1R9x0KxXkYPc3tcx-190" value="" style="shape=table;startSize=0;container=1;collapsible=0;childLayout=tableLayout;" vertex="1" parent="1">
          <mxGeometry x="745" y="680" width="50" height="120" as="geometry" />
        </mxCell>
        <mxCell id="06yi1R9x0KxXkYPc3tcx-191" value="" style="shape=tableRow;horizontal=0;startSize=0;swimlaneHead=0;swimlaneBody=0;top=0;left=0;bottom=0;right=0;collapsible=0;dropTarget=0;fillColor=none;points=[[0,0.5],[1,0.5]];portConstraint=eastwest;" vertex="1" parent="06yi1R9x0KxXkYPc3tcx-190">
          <mxGeometry width="50" height="40" as="geometry" />
        </mxCell>
        <mxCell id="06yi1R9x0KxXkYPc3tcx-192" value="&lt;font style=&quot;font-size: 14px;&quot;&gt;207&lt;/font&gt;" style="shape=partialRectangle;html=1;whiteSpace=wrap;connectable=0;overflow=hidden;fillColor=none;top=0;left=0;bottom=0;right=0;pointerEvents=1;" vertex="1" parent="06yi1R9x0KxXkYPc3tcx-191">
          <mxGeometry width="50" height="40" as="geometry">
            <mxRectangle width="50" height="40" as="alternateBounds" />
          </mxGeometry>
        </mxCell>
        <mxCell id="06yi1R9x0KxXkYPc3tcx-193" value="" style="shape=tableRow;horizontal=0;startSize=0;swimlaneHead=0;swimlaneBody=0;top=0;left=0;bottom=0;right=0;collapsible=0;dropTarget=0;fillColor=none;points=[[0,0.5],[1,0.5]];portConstraint=eastwest;" vertex="1" parent="06yi1R9x0KxXkYPc3tcx-190">
          <mxGeometry y="40" width="50" height="40" as="geometry" />
        </mxCell>
        <mxCell id="06yi1R9x0KxXkYPc3tcx-194" value="77" style="shape=partialRectangle;html=1;whiteSpace=wrap;connectable=0;overflow=hidden;fillColor=none;top=0;left=0;bottom=0;right=0;pointerEvents=1;" vertex="1" parent="06yi1R9x0KxXkYPc3tcx-193">
          <mxGeometry width="50" height="40" as="geometry">
            <mxRectangle width="50" height="40" as="alternateBounds" />
          </mxGeometry>
        </mxCell>
        <mxCell id="06yi1R9x0KxXkYPc3tcx-195" value="" style="shape=tableRow;horizontal=0;startSize=0;swimlaneHead=0;swimlaneBody=0;top=0;left=0;bottom=0;right=0;collapsible=0;dropTarget=0;fillColor=none;points=[[0,0.5],[1,0.5]];portConstraint=eastwest;" vertex="1" parent="06yi1R9x0KxXkYPc3tcx-190">
          <mxGeometry y="80" width="50" height="40" as="geometry" />
        </mxCell>
        <mxCell id="06yi1R9x0KxXkYPc3tcx-196" value="" style="shape=partialRectangle;html=1;whiteSpace=wrap;connectable=0;overflow=hidden;fillColor=none;top=0;left=0;bottom=0;right=0;pointerEvents=1;" vertex="1" parent="06yi1R9x0KxXkYPc3tcx-195">
          <mxGeometry width="50" height="40" as="geometry">
            <mxRectangle width="50" height="40" as="alternateBounds" />
          </mxGeometry>
        </mxCell>
        <mxCell id="06yi1R9x0KxXkYPc3tcx-197" value="" style="shape=table;startSize=0;container=1;collapsible=0;childLayout=tableLayout;" vertex="1" parent="1">
          <mxGeometry x="265" y="680" width="50" height="120" as="geometry" />
        </mxCell>
        <mxCell id="06yi1R9x0KxXkYPc3tcx-198" value="" style="shape=tableRow;horizontal=0;startSize=0;swimlaneHead=0;swimlaneBody=0;top=0;left=0;bottom=0;right=0;collapsible=0;dropTarget=0;fillColor=none;points=[[0,0.5],[1,0.5]];portConstraint=eastwest;" vertex="1" parent="06yi1R9x0KxXkYPc3tcx-197">
          <mxGeometry width="50" height="40" as="geometry" />
        </mxCell>
        <mxCell id="06yi1R9x0KxXkYPc3tcx-199" value="&lt;font style=&quot;font-size: 14px;&quot;&gt;147&lt;/font&gt;" style="shape=partialRectangle;html=1;whiteSpace=wrap;connectable=0;overflow=hidden;fillColor=none;top=0;left=0;bottom=0;right=0;pointerEvents=1;" vertex="1" parent="06yi1R9x0KxXkYPc3tcx-198">
          <mxGeometry width="50" height="40" as="geometry">
            <mxRectangle width="50" height="40" as="alternateBounds" />
          </mxGeometry>
        </mxCell>
        <mxCell id="06yi1R9x0KxXkYPc3tcx-200" value="" style="shape=tableRow;horizontal=0;startSize=0;swimlaneHead=0;swimlaneBody=0;top=0;left=0;bottom=0;right=0;collapsible=0;dropTarget=0;fillColor=none;points=[[0,0.5],[1,0.5]];portConstraint=eastwest;" vertex="1" parent="06yi1R9x0KxXkYPc3tcx-197">
          <mxGeometry y="40" width="50" height="40" as="geometry" />
        </mxCell>
        <mxCell id="06yi1R9x0KxXkYPc3tcx-201" value="" style="shape=partialRectangle;html=1;whiteSpace=wrap;connectable=0;overflow=hidden;fillColor=none;top=0;left=0;bottom=0;right=0;pointerEvents=1;" vertex="1" parent="06yi1R9x0KxXkYPc3tcx-200">
          <mxGeometry width="50" height="40" as="geometry">
            <mxRectangle width="50" height="40" as="alternateBounds" />
          </mxGeometry>
        </mxCell>
        <mxCell id="06yi1R9x0KxXkYPc3tcx-202" value="" style="shape=tableRow;horizontal=0;startSize=0;swimlaneHead=0;swimlaneBody=0;top=0;left=0;bottom=0;right=0;collapsible=0;dropTarget=0;fillColor=none;points=[[0,0.5],[1,0.5]];portConstraint=eastwest;" vertex="1" parent="06yi1R9x0KxXkYPc3tcx-197">
          <mxGeometry y="80" width="50" height="40" as="geometry" />
        </mxCell>
        <mxCell id="06yi1R9x0KxXkYPc3tcx-203" value="" style="shape=partialRectangle;html=1;whiteSpace=wrap;connectable=0;overflow=hidden;fillColor=none;top=0;left=0;bottom=0;right=0;pointerEvents=1;" vertex="1" parent="06yi1R9x0KxXkYPc3tcx-202">
          <mxGeometry width="50" height="40" as="geometry">
            <mxRectangle width="50" height="40" as="alternateBounds" />
          </mxGeometry>
        </mxCell>
        <mxCell id="06yi1R9x0KxXkYPc3tcx-204" value="" style="shape=table;startSize=0;container=1;collapsible=0;childLayout=tableLayout;" vertex="1" parent="1">
          <mxGeometry x="505" y="680" width="50" height="120" as="geometry" />
        </mxCell>
        <mxCell id="06yi1R9x0KxXkYPc3tcx-205" value="" style="shape=tableRow;horizontal=0;startSize=0;swimlaneHead=0;swimlaneBody=0;top=0;left=0;bottom=0;right=0;collapsible=0;dropTarget=0;fillColor=none;points=[[0,0.5],[1,0.5]];portConstraint=eastwest;" vertex="1" parent="06yi1R9x0KxXkYPc3tcx-204">
          <mxGeometry width="50" height="40" as="geometry" />
        </mxCell>
        <mxCell id="06yi1R9x0KxXkYPc3tcx-206" value="&lt;font style=&quot;font-size: 14px;&quot;&gt;21&lt;/font&gt;" style="shape=partialRectangle;html=1;whiteSpace=wrap;connectable=0;overflow=hidden;fillColor=none;top=0;left=0;bottom=0;right=0;pointerEvents=1;" vertex="1" parent="06yi1R9x0KxXkYPc3tcx-205">
          <mxGeometry width="50" height="40" as="geometry">
            <mxRectangle width="50" height="40" as="alternateBounds" />
          </mxGeometry>
        </mxCell>
        <mxCell id="06yi1R9x0KxXkYPc3tcx-207" value="" style="shape=tableRow;horizontal=0;startSize=0;swimlaneHead=0;swimlaneBody=0;top=0;left=0;bottom=0;right=0;collapsible=0;dropTarget=0;fillColor=none;points=[[0,0.5],[1,0.5]];portConstraint=eastwest;" vertex="1" parent="06yi1R9x0KxXkYPc3tcx-204">
          <mxGeometry y="40" width="50" height="40" as="geometry" />
        </mxCell>
        <mxCell id="06yi1R9x0KxXkYPc3tcx-208" value="" style="shape=partialRectangle;html=1;whiteSpace=wrap;connectable=0;overflow=hidden;fillColor=none;top=0;left=0;bottom=0;right=0;pointerEvents=1;" vertex="1" parent="06yi1R9x0KxXkYPc3tcx-207">
          <mxGeometry width="50" height="40" as="geometry">
            <mxRectangle width="50" height="40" as="alternateBounds" />
          </mxGeometry>
        </mxCell>
        <mxCell id="06yi1R9x0KxXkYPc3tcx-209" value="" style="shape=tableRow;horizontal=0;startSize=0;swimlaneHead=0;swimlaneBody=0;top=0;left=0;bottom=0;right=0;collapsible=0;dropTarget=0;fillColor=none;points=[[0,0.5],[1,0.5]];portConstraint=eastwest;" vertex="1" parent="06yi1R9x0KxXkYPc3tcx-204">
          <mxGeometry y="80" width="50" height="40" as="geometry" />
        </mxCell>
        <mxCell id="06yi1R9x0KxXkYPc3tcx-210" value="" style="shape=partialRectangle;html=1;whiteSpace=wrap;connectable=0;overflow=hidden;fillColor=none;top=0;left=0;bottom=0;right=0;pointerEvents=1;" vertex="1" parent="06yi1R9x0KxXkYPc3tcx-209">
          <mxGeometry width="50" height="40" as="geometry">
            <mxRectangle width="50" height="40" as="alternateBounds" />
          </mxGeometry>
        </mxCell>
        <mxCell id="06yi1R9x0KxXkYPc3tcx-211" value="" style="shape=table;startSize=0;container=1;collapsible=0;childLayout=tableLayout;" vertex="1" parent="1">
          <mxGeometry x="205" y="680" width="50" height="120" as="geometry" />
        </mxCell>
        <mxCell id="06yi1R9x0KxXkYPc3tcx-212" value="" style="shape=tableRow;horizontal=0;startSize=0;swimlaneHead=0;swimlaneBody=0;top=0;left=0;bottom=0;right=0;collapsible=0;dropTarget=0;fillColor=none;points=[[0,0.5],[1,0.5]];portConstraint=eastwest;" vertex="1" parent="06yi1R9x0KxXkYPc3tcx-211">
          <mxGeometry width="50" height="40" as="geometry" />
        </mxCell>
        <mxCell id="06yi1R9x0KxXkYPc3tcx-213" value="&lt;font style=&quot;font-size: 14px;&quot;&gt;16&lt;/font&gt;" style="shape=partialRectangle;html=1;whiteSpace=wrap;connectable=0;overflow=hidden;fillColor=none;top=0;left=0;bottom=0;right=0;pointerEvents=1;" vertex="1" parent="06yi1R9x0KxXkYPc3tcx-212">
          <mxGeometry width="50" height="40" as="geometry">
            <mxRectangle width="50" height="40" as="alternateBounds" />
          </mxGeometry>
        </mxCell>
        <mxCell id="06yi1R9x0KxXkYPc3tcx-214" value="" style="shape=tableRow;horizontal=0;startSize=0;swimlaneHead=0;swimlaneBody=0;top=0;left=0;bottom=0;right=0;collapsible=0;dropTarget=0;fillColor=none;points=[[0,0.5],[1,0.5]];portConstraint=eastwest;" vertex="1" parent="06yi1R9x0KxXkYPc3tcx-211">
          <mxGeometry y="40" width="50" height="40" as="geometry" />
        </mxCell>
        <mxCell id="06yi1R9x0KxXkYPc3tcx-215" value="94" style="shape=partialRectangle;html=1;whiteSpace=wrap;connectable=0;overflow=hidden;fillColor=none;top=0;left=0;bottom=0;right=0;pointerEvents=1;" vertex="1" parent="06yi1R9x0KxXkYPc3tcx-214">
          <mxGeometry width="50" height="40" as="geometry">
            <mxRectangle width="50" height="40" as="alternateBounds" />
          </mxGeometry>
        </mxCell>
        <mxCell id="06yi1R9x0KxXkYPc3tcx-216" value="" style="shape=tableRow;horizontal=0;startSize=0;swimlaneHead=0;swimlaneBody=0;top=0;left=0;bottom=0;right=0;collapsible=0;dropTarget=0;fillColor=none;points=[[0,0.5],[1,0.5]];portConstraint=eastwest;" vertex="1" parent="06yi1R9x0KxXkYPc3tcx-211">
          <mxGeometry y="80" width="50" height="40" as="geometry" />
        </mxCell>
        <mxCell id="06yi1R9x0KxXkYPc3tcx-217" value="81" style="shape=partialRectangle;html=1;whiteSpace=wrap;connectable=0;overflow=hidden;fillColor=none;top=0;left=0;bottom=0;right=0;pointerEvents=1;" vertex="1" parent="06yi1R9x0KxXkYPc3tcx-216">
          <mxGeometry width="50" height="40" as="geometry">
            <mxRectangle width="50" height="40" as="alternateBounds" />
          </mxGeometry>
        </mxCell>
        <mxCell id="06yi1R9x0KxXkYPc3tcx-218" value="" style="shape=table;startSize=0;container=1;collapsible=0;childLayout=tableLayout;" vertex="1" parent="1">
          <mxGeometry x="445" y="680" width="50" height="120" as="geometry" />
        </mxCell>
        <mxCell id="06yi1R9x0KxXkYPc3tcx-219" value="" style="shape=tableRow;horizontal=0;startSize=0;swimlaneHead=0;swimlaneBody=0;top=0;left=0;bottom=0;right=0;collapsible=0;dropTarget=0;fillColor=none;points=[[0,0.5],[1,0.5]];portConstraint=eastwest;" vertex="1" parent="06yi1R9x0KxXkYPc3tcx-218">
          <mxGeometry width="50" height="40" as="geometry" />
        </mxCell>
        <mxCell id="06yi1R9x0KxXkYPc3tcx-220" value="&lt;font style=&quot;font-size: 14px;&quot;&gt;189&lt;/font&gt;" style="shape=partialRectangle;html=1;whiteSpace=wrap;connectable=0;overflow=hidden;fillColor=none;top=0;left=0;bottom=0;right=0;pointerEvents=1;" vertex="1" parent="06yi1R9x0KxXkYPc3tcx-219">
          <mxGeometry width="50" height="40" as="geometry">
            <mxRectangle width="50" height="40" as="alternateBounds" />
          </mxGeometry>
        </mxCell>
        <mxCell id="06yi1R9x0KxXkYPc3tcx-221" value="" style="shape=tableRow;horizontal=0;startSize=0;swimlaneHead=0;swimlaneBody=0;top=0;left=0;bottom=0;right=0;collapsible=0;dropTarget=0;fillColor=none;points=[[0,0.5],[1,0.5]];portConstraint=eastwest;" vertex="1" parent="06yi1R9x0KxXkYPc3tcx-218">
          <mxGeometry y="40" width="50" height="40" as="geometry" />
        </mxCell>
        <mxCell id="06yi1R9x0KxXkYPc3tcx-222" value="202" style="shape=partialRectangle;html=1;whiteSpace=wrap;connectable=0;overflow=hidden;fillColor=none;top=0;left=0;bottom=0;right=0;pointerEvents=1;" vertex="1" parent="06yi1R9x0KxXkYPc3tcx-221">
          <mxGeometry width="50" height="40" as="geometry">
            <mxRectangle width="50" height="40" as="alternateBounds" />
          </mxGeometry>
        </mxCell>
        <mxCell id="06yi1R9x0KxXkYPc3tcx-223" value="" style="shape=tableRow;horizontal=0;startSize=0;swimlaneHead=0;swimlaneBody=0;top=0;left=0;bottom=0;right=0;collapsible=0;dropTarget=0;fillColor=none;points=[[0,0.5],[1,0.5]];portConstraint=eastwest;" vertex="1" parent="06yi1R9x0KxXkYPc3tcx-218">
          <mxGeometry y="80" width="50" height="40" as="geometry" />
        </mxCell>
        <mxCell id="06yi1R9x0KxXkYPc3tcx-224" value="" style="shape=partialRectangle;html=1;whiteSpace=wrap;connectable=0;overflow=hidden;fillColor=none;top=0;left=0;bottom=0;right=0;pointerEvents=1;" vertex="1" parent="06yi1R9x0KxXkYPc3tcx-223">
          <mxGeometry width="50" height="40" as="geometry">
            <mxRectangle width="50" height="40" as="alternateBounds" />
          </mxGeometry>
        </mxCell>
        <mxCell id="06yi1R9x0KxXkYPc3tcx-225" value="" style="shape=table;startSize=0;container=1;collapsible=0;childLayout=tableLayout;" vertex="1" parent="1">
          <mxGeometry x="625" y="680" width="50" height="120" as="geometry" />
        </mxCell>
        <mxCell id="06yi1R9x0KxXkYPc3tcx-226" value="" style="shape=tableRow;horizontal=0;startSize=0;swimlaneHead=0;swimlaneBody=0;top=0;left=0;bottom=0;right=0;collapsible=0;dropTarget=0;fillColor=none;points=[[0,0.5],[1,0.5]];portConstraint=eastwest;" vertex="1" parent="06yi1R9x0KxXkYPc3tcx-225">
          <mxGeometry width="50" height="40" as="geometry" />
        </mxCell>
        <mxCell id="06yi1R9x0KxXkYPc3tcx-227" value="&lt;font style=&quot;font-size: 14px;&quot;&gt;75&lt;/font&gt;" style="shape=partialRectangle;html=1;whiteSpace=wrap;connectable=0;overflow=hidden;fillColor=none;top=0;left=0;bottom=0;right=0;pointerEvents=1;" vertex="1" parent="06yi1R9x0KxXkYPc3tcx-226">
          <mxGeometry width="50" height="40" as="geometry">
            <mxRectangle width="50" height="40" as="alternateBounds" />
          </mxGeometry>
        </mxCell>
        <mxCell id="06yi1R9x0KxXkYPc3tcx-228" value="" style="shape=tableRow;horizontal=0;startSize=0;swimlaneHead=0;swimlaneBody=0;top=0;left=0;bottom=0;right=0;collapsible=0;dropTarget=0;fillColor=none;points=[[0,0.5],[1,0.5]];portConstraint=eastwest;" vertex="1" parent="06yi1R9x0KxXkYPc3tcx-225">
          <mxGeometry y="40" width="50" height="40" as="geometry" />
        </mxCell>
        <mxCell id="06yi1R9x0KxXkYPc3tcx-229" value="" style="shape=partialRectangle;html=1;whiteSpace=wrap;connectable=0;overflow=hidden;fillColor=none;top=0;left=0;bottom=0;right=0;pointerEvents=1;" vertex="1" parent="06yi1R9x0KxXkYPc3tcx-228">
          <mxGeometry width="50" height="40" as="geometry">
            <mxRectangle width="50" height="40" as="alternateBounds" />
          </mxGeometry>
        </mxCell>
        <mxCell id="06yi1R9x0KxXkYPc3tcx-230" value="" style="shape=tableRow;horizontal=0;startSize=0;swimlaneHead=0;swimlaneBody=0;top=0;left=0;bottom=0;right=0;collapsible=0;dropTarget=0;fillColor=none;points=[[0,0.5],[1,0.5]];portConstraint=eastwest;" vertex="1" parent="06yi1R9x0KxXkYPc3tcx-225">
          <mxGeometry y="80" width="50" height="40" as="geometry" />
        </mxCell>
        <mxCell id="06yi1R9x0KxXkYPc3tcx-231" value="" style="shape=partialRectangle;html=1;whiteSpace=wrap;connectable=0;overflow=hidden;fillColor=none;top=0;left=0;bottom=0;right=0;pointerEvents=1;" vertex="1" parent="06yi1R9x0KxXkYPc3tcx-230">
          <mxGeometry width="50" height="40" as="geometry">
            <mxRectangle width="50" height="40" as="alternateBounds" />
          </mxGeometry>
        </mxCell>
        <mxCell id="06yi1R9x0KxXkYPc3tcx-232" value="" style="shape=table;startSize=0;container=1;collapsible=0;childLayout=tableLayout;" vertex="1" parent="1">
          <mxGeometry x="565" y="680" width="50" height="120" as="geometry" />
        </mxCell>
        <mxCell id="06yi1R9x0KxXkYPc3tcx-233" value="" style="shape=tableRow;horizontal=0;startSize=0;swimlaneHead=0;swimlaneBody=0;top=0;left=0;bottom=0;right=0;collapsible=0;dropTarget=0;fillColor=none;points=[[0,0.5],[1,0.5]];portConstraint=eastwest;" vertex="1" parent="06yi1R9x0KxXkYPc3tcx-232">
          <mxGeometry width="50" height="40" as="geometry" />
        </mxCell>
        <mxCell id="06yi1R9x0KxXkYPc3tcx-234" value="&lt;font style=&quot;font-size: 14px;&quot;&gt;48&lt;/font&gt;" style="shape=partialRectangle;html=1;whiteSpace=wrap;connectable=0;overflow=hidden;fillColor=none;top=0;left=0;bottom=0;right=0;pointerEvents=1;" vertex="1" parent="06yi1R9x0KxXkYPc3tcx-233">
          <mxGeometry width="50" height="40" as="geometry">
            <mxRectangle width="50" height="40" as="alternateBounds" />
          </mxGeometry>
        </mxCell>
        <mxCell id="06yi1R9x0KxXkYPc3tcx-235" value="" style="shape=tableRow;horizontal=0;startSize=0;swimlaneHead=0;swimlaneBody=0;top=0;left=0;bottom=0;right=0;collapsible=0;dropTarget=0;fillColor=none;points=[[0,0.5],[1,0.5]];portConstraint=eastwest;" vertex="1" parent="06yi1R9x0KxXkYPc3tcx-232">
          <mxGeometry y="40" width="50" height="40" as="geometry" />
        </mxCell>
        <mxCell id="06yi1R9x0KxXkYPc3tcx-236" value="" style="shape=partialRectangle;html=1;whiteSpace=wrap;connectable=0;overflow=hidden;fillColor=none;top=0;left=0;bottom=0;right=0;pointerEvents=1;" vertex="1" parent="06yi1R9x0KxXkYPc3tcx-235">
          <mxGeometry width="50" height="40" as="geometry">
            <mxRectangle width="50" height="40" as="alternateBounds" />
          </mxGeometry>
        </mxCell>
        <mxCell id="06yi1R9x0KxXkYPc3tcx-237" value="" style="shape=tableRow;horizontal=0;startSize=0;swimlaneHead=0;swimlaneBody=0;top=0;left=0;bottom=0;right=0;collapsible=0;dropTarget=0;fillColor=none;points=[[0,0.5],[1,0.5]];portConstraint=eastwest;" vertex="1" parent="06yi1R9x0KxXkYPc3tcx-232">
          <mxGeometry y="80" width="50" height="40" as="geometry" />
        </mxCell>
        <mxCell id="06yi1R9x0KxXkYPc3tcx-238" value="" style="shape=partialRectangle;html=1;whiteSpace=wrap;connectable=0;overflow=hidden;fillColor=none;top=0;left=0;bottom=0;right=0;pointerEvents=1;" vertex="1" parent="06yi1R9x0KxXkYPc3tcx-237">
          <mxGeometry width="50" height="40" as="geometry">
            <mxRectangle width="50" height="40" as="alternateBounds" />
          </mxGeometry>
        </mxCell>
        <mxCell id="06yi1R9x0KxXkYPc3tcx-239" style="edgeStyle=orthogonalEdgeStyle;rounded=0;orthogonalLoop=1;jettySize=auto;html=1;exitX=0;exitY=0.5;exitDx=0;exitDy=0;fontSize=14;entryX=0.507;entryY=0.025;entryDx=0;entryDy=0;entryPerimeter=0;" edge="1" parent="1" source="06yi1R9x0KxXkYPc3tcx-14" target="06yi1R9x0KxXkYPc3tcx-212">
          <mxGeometry relative="1" as="geometry">
            <Array as="points">
              <mxPoint x="20" y="600" />
              <mxPoint x="230" y="600" />
            </Array>
          </mxGeometry>
        </mxCell>
        <mxCell id="06yi1R9x0KxXkYPc3tcx-240" style="edgeStyle=orthogonalEdgeStyle;rounded=0;orthogonalLoop=1;jettySize=auto;html=1;entryX=0.46;entryY=-0.001;entryDx=0;entryDy=0;entryPerimeter=0;fontSize=14;" edge="1" parent="1" source="06yi1R9x0KxXkYPc3tcx-14" target="06yi1R9x0KxXkYPc3tcx-198">
          <mxGeometry relative="1" as="geometry">
            <Array as="points">
              <mxPoint x="20" y="590" />
              <mxPoint x="20" y="590" />
            </Array>
          </mxGeometry>
        </mxCell>
      </root>
    </mxGraphModel>
  </diagram>
  <diagram id="JAhCq0Mi-VsDGaPdQiJY" name="Page-2">
    <mxGraphModel dx="992" dy="1136" grid="1" gridSize="10" guides="1" tooltips="1" connect="1" arrows="1" fold="1" page="1" pageScale="1" pageWidth="827" pageHeight="1169" math="0" shadow="0">
      <root>
        <mxCell id="0" />
        <mxCell id="1" parent="0" />
      </root>
    </mxGraphModel>
  </diagram>
</mxfile>
